M48
;Layer_Color=9474304
;FILE_FORMAT=4:4
METRIC,LZ
;TYPE=PLATED
T1F00S00C0.7000
T2F00S00C0.8500
T3F00S00C0.9000
T4F00S00C1.0000
T5F00S00C1.0200
%
T01
X0004826Y0004231
Y0009231
X0014478Y0016931
Y0021931
T02
X0027813Y0001577
Y0011377
X0003951Y0019503
Y0028503
T03
X0014224Y0004699
Y0007239
Y0009779
Y0012319
X0021844
Y0009779
Y0007239
Y0004699
X0033528Y000381
Y000635
Y000889
Y001143
X0041148
Y000889
Y000635
Y000381
Y001397
Y001651
Y001905
Y002159
X0033528
Y001905
Y001651
Y001397
T04
X00506732Y00040642
X00532132
Y00119382
X00506732
Y00191772
X00532132
Y0026797
X00506732
Y00345522
X00532132
X00429258Y00337822
Y00363222
X00346708
Y00337822
X00271778
Y00363222
X0019685
Y00337822
X0012192
Y00363222
T05
X0004146Y0033528
Y0036068
M30
