%TF.GenerationSoftware,Altium Limited,Altium Designer,22.8.2 (66)*%
G04 Layer_Physical_Order=1*
G04 Layer_Color=255*
%FSLAX45Y45*%
%MOMM*%
%TF.SameCoordinates,7D29B654-BFA4-4C5B-9AD4-86D38D862F27*%
%TF.FilePolarity,Positive*%
%TF.FileFunction,Copper,L1,Top,Signal*%
%TF.Part,Single*%
G01*
G75*
%TA.AperFunction,SMDPad,CuDef*%
%ADD10R,1.60000X1.60000*%
%ADD11R,1.10000X1.60000*%
%TA.AperFunction,Conductor*%
%ADD12C,0.30000*%
%TA.AperFunction,ComponentPad*%
%ADD13R,1.57000X1.57000*%
%ADD14C,1.57000*%
%ADD15R,1.35000X1.35000*%
%ADD16C,1.35000*%
%ADD17R,1.50000X1.50000*%
%ADD18C,1.50000*%
%ADD19C,1.20000*%
%ADD20R,1.20000X1.20000*%
D10*
X445100Y1605500D02*
D03*
D11*
X560100Y1315500D02*
D03*
X330100D02*
D03*
D12*
X3112600Y2043600D02*
X3335226D01*
X1968500Y3187700D02*
Y3378216D01*
Y3187700D02*
X3112600Y2043600D01*
X1219200Y3378216D02*
X2807816Y1789600D01*
X3335226D01*
X3352800Y1905000D02*
Y2026026D01*
X3335226Y2043600D02*
X3352800Y2026026D01*
X2057400Y1358900D02*
X2184400Y1231900D01*
X2057400Y1358900D02*
Y2095500D01*
X1308100Y2844800D02*
X2057400Y2095500D01*
X400600Y2844800D02*
X1308100D01*
X3352800Y1651000D02*
Y1772026D01*
X3335226Y1789600D02*
X3352800Y1772026D01*
X4630626Y1371600D02*
X4648200Y1389174D01*
Y1828800D02*
X4737116Y1917716D01*
X4521200Y1371600D02*
X4630626D01*
X4648200Y1389174D02*
Y1828800D01*
X2501900Y381000D02*
X3352800D01*
X2387600Y266700D02*
X2501900Y381000D01*
X1625600Y266700D02*
X2387600D01*
X1422400Y469900D02*
X1625600Y266700D01*
X1905000Y723900D02*
X2184400D01*
X1435100Y965200D02*
X1663700D01*
X1905000Y723900D01*
X1447800Y1549400D02*
Y1693100D01*
X1422400Y1524000D02*
X1447800Y1549400D01*
X1422400Y1231900D02*
Y1524000D01*
Y1667700D02*
X1447800Y1693100D01*
X115300Y49800D02*
X3021600D01*
X395100Y1655500D02*
Y1950300D01*
Y1655500D02*
X445100Y1605500D01*
X4457700Y1693974D02*
Y2933700D01*
X4968413Y3444413D02*
X5056513D01*
X4457700Y2933700D02*
X4968413Y3444413D01*
X5056513D02*
X5067316Y3455216D01*
X414600Y3606800D02*
X668226D01*
X685800Y3589226D01*
Y3065574D02*
Y3589226D01*
X419100Y3048000D02*
X668226D01*
X685800Y3065574D01*
X395100Y2850300D02*
Y3024000D01*
X419100Y3048000D01*
X324800Y1335200D02*
X445100Y1455500D01*
X324800Y1320800D02*
Y1335200D01*
X445100Y1455500D02*
Y1605500D01*
X177800Y1257300D02*
X241300Y1320800D01*
X177800Y812800D02*
Y1257300D01*
Y812800D02*
X266700Y723900D01*
X50800Y114300D02*
Y3589226D01*
X68374Y3606800D01*
X50800Y114300D02*
X115300Y49800D01*
X68374Y3606800D02*
X414600D01*
X1422400Y977900D02*
X1435100Y965200D01*
X395100Y2850300D02*
X400600Y2844800D01*
X3021600Y49800D02*
X3352800Y381000D01*
X2344200Y1137700D02*
X2781300D01*
X2184400Y977900D02*
X2344200Y1137700D01*
X241300Y1320800D02*
X324800D01*
X266700Y723900D02*
X1422400D01*
X537400Y977900D02*
X1422400D01*
X482600Y923100D02*
X537400Y977900D01*
X482600Y1213000D02*
X560100Y1290500D01*
Y1315500D01*
X482600Y923100D02*
Y1213000D01*
X2781300Y1137700D02*
X2788700Y1130300D01*
X2933700D01*
X3175000Y889000D02*
X3352800D01*
X2933700Y1130300D02*
X3175000Y889000D01*
X3352800Y2159000D02*
Y2743200D01*
X2717784Y3378216D02*
X3352800Y2743200D01*
X4267200Y2057400D02*
Y2578100D01*
X3467084Y3378216D02*
X4267200Y2578100D01*
X4114800Y1905000D02*
X4267200Y2057400D01*
X4292584Y3345744D02*
Y3378216D01*
X4114800Y1651000D02*
X4330700Y1866900D01*
X4292584Y3345744D02*
X4330700Y3307628D01*
Y1866900D02*
Y3307628D01*
X4394200Y1676400D02*
X4440126D01*
X4457700Y1693974D01*
X4114800Y1397000D02*
X4394200Y1676400D01*
X4572000Y2616200D02*
X4635500Y2679700D01*
X5067316D01*
X4394200Y1549400D02*
X4554426D01*
X4572000Y1566974D01*
Y2616200D01*
X4318000Y1473200D02*
X4394200Y1549400D01*
X4114800Y1143000D02*
X4300426D01*
X4318000Y1160574D01*
Y1473200D01*
X4470400Y1320800D02*
X4521200Y1371600D01*
X4737116Y1917716D02*
X5067316D01*
X4470400Y919274D02*
Y1320800D01*
X4452826Y901700D02*
X4470400Y919274D01*
X4127500Y901700D02*
X4452826D01*
X4114800Y889000D02*
X4127500Y901700D01*
X4140216Y406416D02*
X5067316D01*
X4114800Y381000D02*
X4140216Y406416D01*
X4724416Y1193816D02*
X5067316D01*
X4686300Y1155700D02*
X4724416Y1193816D01*
X4686300Y652574D02*
Y1155700D01*
X4114800Y635000D02*
X4668726D01*
X4686300Y652574D01*
D13*
X414600Y3606800D02*
D03*
D14*
Y3352800D02*
D03*
D15*
X395100Y1950300D02*
D03*
D16*
Y2850300D02*
D03*
X2781300Y1137700D02*
D03*
Y157700D02*
D03*
D17*
X2184400Y469900D02*
D03*
X4114800Y381000D02*
D03*
D18*
X2184400Y723900D02*
D03*
Y977900D02*
D03*
Y1231900D02*
D03*
X1422400Y469900D02*
D03*
Y723900D02*
D03*
Y977900D02*
D03*
Y1231900D02*
D03*
X3352800Y2159000D02*
D03*
Y1905000D02*
D03*
Y1651000D02*
D03*
Y1397000D02*
D03*
Y1143000D02*
D03*
Y889000D02*
D03*
Y635000D02*
D03*
Y381000D02*
D03*
X4114800Y2159000D02*
D03*
Y1905000D02*
D03*
Y1651000D02*
D03*
Y1397000D02*
D03*
Y1143000D02*
D03*
Y889000D02*
D03*
Y635000D02*
D03*
X1219200Y3632216D02*
D03*
Y3378216D02*
D03*
X1968500Y3632216D02*
D03*
Y3378216D02*
D03*
X2717784Y3632216D02*
D03*
Y3378216D02*
D03*
X3467084Y3632216D02*
D03*
Y3378216D02*
D03*
X4292584Y3632216D02*
D03*
Y3378216D02*
D03*
X5321316Y3455216D02*
D03*
X5067316D02*
D03*
X5321316Y2679700D02*
D03*
X5067316D02*
D03*
X5321316Y406416D02*
D03*
X5067316D02*
D03*
X5321316Y1193816D02*
D03*
X5067316D02*
D03*
X5321316Y1917716D02*
D03*
X5067316D02*
D03*
D19*
X1447800Y2193100D02*
D03*
X482600Y423100D02*
D03*
D20*
X1447800Y1693100D02*
D03*
X482600Y923100D02*
D03*
%TF.MD5,06f2ffb4acfe22d8e430e16b90da82b4*%
M02*
