%TF.GenerationSoftware,Altium Limited,Altium Designer,22.8.2 (66)*%
G04 Layer_Color=65535*
%FSLAX45Y45*%
%MOMM*%
%TF.SameCoordinates,7D29B654-BFA4-4C5B-9AD4-86D38D862F27*%
%TF.FilePolarity,Positive*%
%TF.FileFunction,Legend,Top*%
%TF.Part,Single*%
G01*
G75*
%TA.AperFunction,NonConductor*%
%ADD21C,0.25000*%
%ADD22C,0.20000*%
%ADD23C,0.60000*%
%ADD24C,0.15000*%
%ADD25C,0.25400*%
%ADD26C,0.10000*%
G36*
X1984935Y4100606D02*
X1979706D01*
Y4105835D01*
X1984935D01*
Y4100606D01*
D02*
G37*
G36*
X2771461Y4074306D02*
X2772396Y4078977D01*
X2773330Y4082714D01*
X2777067Y4088320D01*
X2784074Y4100932D01*
X2788745Y4105603D01*
X2787811Y4111209D01*
X2782672Y4113545D01*
X2777067Y4114479D01*
X2771928Y4118683D01*
X2770527Y4120084D01*
X2763987Y4121953D01*
X2757914Y4123354D01*
X2752309Y4127091D01*
X2750908Y4128493D01*
X2744368Y4130361D01*
X2729420Y4131296D01*
X2719143Y4130361D01*
X2712603Y4125690D01*
X2711202Y4124289D01*
X2710268Y4122420D01*
X2708399Y4120552D01*
X2706531Y4115880D01*
X2707465Y4107472D01*
X2713538Y4098597D01*
X2720077Y4095794D01*
X2723814Y4094859D01*
X2741098Y4095327D01*
X2745769Y4092524D01*
X2746703Y4088787D01*
X2745769Y4082247D01*
X2744368Y4079912D01*
X2739697Y4078043D01*
X2727551Y4077109D01*
X2710735Y4078043D01*
X2704195Y4081780D01*
X2701392Y4084583D01*
X2693451Y4088787D01*
X2692517Y4090656D01*
X2688780Y4097195D01*
X2685043Y4102801D01*
X2683174Y4107472D01*
X2682707Y4117282D01*
X2683174Y4117749D01*
X2682240Y4120552D01*
X2683174Y4134565D01*
X2687846Y4142974D01*
X2692517Y4150448D01*
X2693451Y4152316D01*
X2697655Y4156520D01*
X2699524Y4157454D01*
X2704662Y4161659D01*
X2707932Y4164929D01*
X2712603Y4166797D01*
X2716340Y4167731D01*
X2732223Y4175205D01*
X2747171Y4176139D01*
X2769593Y4175205D01*
X2785475Y4167731D01*
X2796219Y4165396D01*
X2799489Y4163060D01*
X2802292Y4160257D01*
X2808831Y4158389D01*
X2812568Y4157454D01*
X2820977Y4152783D01*
X2827516Y4149981D01*
X2834056Y4149046D01*
X2849938Y4149981D01*
X2851807Y4151849D01*
X2853208Y4152316D01*
X2854143Y4154185D01*
X2857880Y4157922D01*
X2858814Y4159790D01*
X2860682Y4164461D01*
X2861617Y4171936D01*
X2863952Y4174271D01*
X2867689Y4175205D01*
X2874229Y4174271D01*
X2877499Y4171001D01*
X2876565Y4159790D01*
X2875631Y4156987D01*
X2874696Y4153251D01*
X2872828Y4146711D01*
X2869558Y4137835D01*
X2866288Y4132697D01*
X2862551Y4127091D01*
X2859748Y4122420D01*
X2854143Y4117749D01*
X2849938Y4113545D01*
X2846202Y4112611D01*
X2839662Y4108873D01*
X2837793Y4107005D01*
X2833122Y4105136D01*
X2823779Y4104202D01*
X2809766Y4103268D01*
X2806496Y4100932D01*
X2804627Y4096261D01*
X2803226Y4090188D01*
X2802759Y4082247D01*
X2806496Y4072905D01*
X2809766Y4064029D01*
X2816773Y4054219D01*
X2817707Y4052351D01*
X2821911Y4047213D01*
X2825648Y4043476D01*
X2829385Y4042541D01*
X2832188Y4043476D01*
X2833589Y4047680D01*
X2834523Y4060759D01*
X2836392Y4065431D01*
X2840129Y4071971D01*
X2844333Y4077109D01*
X2846202Y4078043D01*
X2851340Y4082247D01*
X2857413Y4085517D01*
X2863952Y4086451D01*
X2888243Y4085517D01*
X2891513Y4082247D01*
X2890578Y4075707D01*
X2887776Y4069168D01*
X2886374Y4064029D01*
X2883572Y4058424D01*
X2881236Y4050483D01*
X2878900Y4044410D01*
X2877032Y4042541D01*
X2873295Y4041607D01*
X2857413Y4040673D01*
X2853208Y4037403D01*
X2852274Y4035534D01*
X2845734Y4025258D01*
X2844800Y4015915D01*
X2845734Y4009376D01*
X2851340Y4000967D01*
X2853208Y3996296D01*
X2854610Y3990223D01*
X2855544Y3986486D01*
X2858814Y3975742D01*
X2859281Y3968736D01*
X2858814Y3954254D01*
X2859748Y3951452D01*
X2858814Y3948649D01*
X2857880Y3943043D01*
X2855077Y3936504D01*
X2854143Y3932767D01*
X2850873Y3923891D01*
X2848537Y3921556D01*
X2847603Y3919687D01*
X2845734Y3917819D01*
X2841063Y3909411D01*
X2839662Y3908009D01*
X2837793Y3907075D01*
X2835458Y3904739D01*
X2834523Y3902871D01*
X2830319Y3898667D01*
X2823779Y3894929D01*
X2820042Y3891192D01*
X2815371Y3889324D01*
X2809298Y3887923D01*
X2804627Y3886054D01*
X2797620Y3881850D01*
X2791081Y3880916D01*
X2778935Y3879981D01*
X2753711Y3880916D01*
X2749039Y3882784D01*
X2747171Y3883718D01*
X2736894Y3888390D01*
X2731288Y3889324D01*
X2726617Y3892127D01*
X2722880Y3895864D01*
X2721012Y3896798D01*
X2712136Y3902871D01*
X2705596Y3911279D01*
X2702794Y3914082D01*
X2701859Y3915950D01*
X2692517Y3935569D01*
X2691583Y3942109D01*
X2690648Y3951452D01*
X2691583Y3970137D01*
X2692517Y3972939D01*
X2693451Y3976677D01*
X2697188Y3983216D01*
X2703728Y3995362D01*
X2705596Y3997230D01*
X2706531Y3999099D01*
X2708399Y4000967D01*
X2713071Y4009376D01*
X2714939Y4011244D01*
X2716807Y4015915D01*
X2718676Y4023389D01*
X2717742Y4030863D01*
X2713071Y4037403D01*
X2710735Y4039739D01*
X2706998Y4040673D01*
X2704195Y4041607D01*
X2699524Y4044410D01*
X2698122Y4045811D01*
X2697188Y4052351D01*
X2699991Y4057022D01*
X2701392Y4058424D01*
X2705129Y4059358D01*
X2720077Y4058424D01*
X2726617Y4054687D01*
X2736894Y4050016D01*
X2742967Y4046746D01*
X2743901Y4044877D01*
X2751375Y4037403D01*
X2752309Y4035534D01*
X2756046Y4027126D01*
X2757914Y4019652D01*
X2758849Y4013112D01*
X2757914Y4010310D01*
X2758849Y4002836D01*
X2757914Y4000033D01*
X2756513Y3993026D01*
X2754645Y3985552D01*
X2752776Y3980881D01*
X2749506Y3975742D01*
X2741098Y3959860D01*
X2739229Y3957992D01*
X2737361Y3951452D01*
X2736427Y3947715D01*
X2737361Y3921556D01*
X2743434Y3912680D01*
X2745769Y3909411D01*
X2749039Y3906141D01*
X2753711Y3903338D01*
X2756513Y3900535D01*
X2761184Y3898667D01*
X2770527Y3897732D01*
X2789212Y3898667D01*
X2795752Y3903338D01*
X2797620Y3905206D01*
X2799489Y3906141D01*
X2801357Y3908009D01*
X2803226Y3908943D01*
X2806496Y3912213D01*
X2812101Y3926227D01*
X2813036Y3929964D01*
X2812101Y3949583D01*
X2810233Y3954254D01*
X2805094Y3968736D01*
X2802759Y3972005D01*
X2795285Y3986019D01*
X2792482Y3988822D01*
X2785008Y4002836D01*
X2783139Y4004704D01*
X2780337Y4011244D01*
X2771928Y4028995D01*
X2770527Y4035067D01*
X2769593Y4039739D01*
X2768658Y4043476D01*
X2768191Y4057957D01*
X2769126Y4060759D01*
X2770527Y4068701D01*
X2770994Y4073839D01*
X2771461Y4074306D01*
D02*
G37*
G36*
X3006426Y4112143D02*
X3007827Y4110742D01*
X3009696Y4109808D01*
X3013433Y4106071D01*
X3025111Y4101867D01*
X3028381Y4098597D01*
X3030249Y4097662D01*
X3034921Y4095794D01*
X3042862Y4094392D01*
X3048934Y4092057D01*
X3054540Y4088320D01*
X3065284Y4086918D01*
X3069021Y4085050D01*
X3069955Y4081313D01*
X3067619Y4077109D01*
X3061080Y4073372D01*
X3058744Y4071036D01*
X3056876Y4063562D01*
X3055941Y4057022D01*
X3056876Y3999099D01*
X3057810Y3996296D01*
X3061547Y3989756D01*
X3062948Y3988355D01*
X3077896Y3987421D01*
X3081166Y3984151D01*
X3080232Y3979479D01*
X3072291Y3971538D01*
X3071356D01*
X3062481Y3965466D01*
X3058277Y3961261D01*
X3051737Y3957524D01*
X3046132Y3951919D01*
X3044263Y3950985D01*
X3037723Y3944445D01*
X3032118Y3945379D01*
X3026979Y3949583D01*
X3021374Y3955189D01*
X3020440Y3957057D01*
X3015768Y3963597D01*
X3014834Y3967334D01*
X3013433Y3974341D01*
X3010630Y3977144D01*
X3004090Y3976209D01*
X2998952Y3972005D01*
X2991478Y3967334D01*
X2986339Y3962196D01*
X2984471Y3961261D01*
X2977931Y3956590D01*
X2973260Y3951919D01*
X2971391Y3950985D01*
X2965786Y3945379D01*
X2962049Y3944445D01*
X2957378Y3945379D01*
X2952239Y3949583D01*
X2944765Y3954254D01*
X2933554Y3965466D01*
X2927949Y3975742D01*
X2925146Y3982282D01*
X2923744Y3991158D01*
X2922343Y4003770D01*
X2923277Y4041140D01*
X2924212Y4043943D01*
X2925146Y4051417D01*
X2931686Y4063562D01*
X2937758Y4072438D01*
X2949903Y4084583D01*
X2958312Y4089254D01*
X2962983Y4093925D01*
X2966720Y4094859D01*
X2972793Y4097195D01*
X2976063Y4099531D01*
X2978865Y4102334D01*
X2983537Y4104202D01*
X2990076Y4107939D01*
X2993813Y4111676D01*
X3000353Y4113545D01*
X3006426Y4112143D01*
D02*
G37*
G36*
X3123674Y3983683D02*
X3127879Y3987888D01*
X3129747Y3992559D01*
X3130682Y3996296D01*
X3129747Y4058891D01*
X3126010Y4065431D01*
X3122273Y4069168D01*
X3121339Y4071036D01*
X3118069Y4074306D01*
X3111529Y4075240D01*
X3103121Y4071503D01*
X3097516Y4072438D01*
X3095180Y4074773D01*
X3094246Y4078510D01*
X3095180Y4084116D01*
X3099384Y4088320D01*
X3101253Y4089254D01*
X3104989Y4092991D01*
X3111529Y4095794D01*
X3113398Y4096728D01*
X3118536Y4100932D01*
X3119938Y4102334D01*
X3128346Y4107005D01*
X3133017Y4111676D01*
X3139557Y4110742D01*
X3145162Y4105136D01*
X3147031Y4104202D01*
X3152169Y4099998D01*
X3154972Y4097195D01*
X3155906Y4095327D01*
X3157775Y4093458D01*
X3159643Y4088787D01*
X3163380Y4082247D01*
X3167584Y4080846D01*
X3172256Y4081780D01*
X3174591Y4084116D01*
X3175526Y4085984D01*
X3180664Y4092991D01*
X3182533Y4093925D01*
X3184401Y4095794D01*
X3186269Y4096728D01*
X3192809Y4103268D01*
X3197481Y4106071D01*
X3204020Y4112611D01*
X3211494Y4111676D01*
X3213830Y4109341D01*
X3214764Y4107472D01*
X3220370Y4101867D01*
X3221304Y4099998D01*
X3230647Y4090656D01*
X3233449Y4084116D01*
X3232515Y4080379D01*
X3230179Y4078043D01*
X3228311Y4077109D01*
X3226442Y4075240D01*
X3224574Y4074306D01*
X3220370Y4070102D01*
X3219903Y4068701D01*
X3218034Y4067766D01*
X3216166Y4065898D01*
X3214297Y4064963D01*
X3209626Y4063095D01*
X3204954Y4064029D01*
X3202619Y4066365D01*
X3201685Y4068233D01*
X3193743Y4076174D01*
X3190007Y4077109D01*
X3186269Y4076174D01*
X3182065Y4071971D01*
X3181131Y4070102D01*
X3178328Y4067299D01*
X3174591Y4058891D01*
X3173657Y4055154D01*
X3172723Y4052351D01*
X3169920Y4043009D01*
X3168986Y4039272D01*
X3168519Y3993026D01*
X3170387Y3988355D01*
X3173657Y3985085D01*
X3174591Y3983216D01*
X3177861Y3979947D01*
X3185335Y3978078D01*
X3197481Y3979012D01*
X3205889Y3984618D01*
X3210560Y3983683D01*
X3213830Y3980414D01*
X3215698Y3975742D01*
X3214764Y3972005D01*
X3212429Y3969670D01*
X3210560Y3968736D01*
X3207757Y3965933D01*
X3205889Y3964998D01*
X3201218Y3962196D01*
X3194678Y3960327D01*
X3190007Y3958459D01*
X3184868Y3954254D01*
X3183467Y3952853D01*
X3178328Y3951452D01*
X3174591Y3950518D01*
X3168986Y3946781D01*
X3166650Y3944445D01*
X3162446Y3943978D01*
X3157775Y3945846D01*
X3152636Y3950985D01*
X3146564Y3953320D01*
X3144228Y3955656D01*
X3142360Y3956590D01*
X3139557Y3959393D01*
X3135820Y3960327D01*
X3129747Y3962663D01*
X3119938Y3967801D01*
X3113865Y3970137D01*
X3111062Y3972005D01*
X3111996Y3977611D01*
X3123207Y3983216D01*
X3123674Y3983683D01*
D02*
G37*
G36*
X3340421Y4109808D02*
X3344625Y4105603D01*
X3346494Y4100932D01*
X3347428Y4099064D01*
X3351632Y4093925D01*
X3353034Y4092524D01*
X3358639Y4082247D01*
X3361442Y4079444D01*
X3362376Y4077576D01*
X3366113Y4071036D01*
X3370317Y4065898D01*
X3371719Y4064496D01*
X3378258Y4050483D01*
X3376390Y4045811D01*
X3374054Y4043476D01*
X3367514Y4041607D01*
X3361442Y4040206D01*
X3358172Y4038804D01*
X3356303Y4036936D01*
X3354435Y4036002D01*
X3352567Y4034133D01*
X3346494Y4032732D01*
X3341823Y4031798D01*
X3327342Y4023856D01*
X3320335Y4022455D01*
X3312394Y4018251D01*
X3303985Y4013579D01*
X3301650Y4011244D01*
X3302584Y4003770D01*
X3306788Y3998632D01*
X3309124Y3996296D01*
X3312861Y3989756D01*
X3314262Y3988355D01*
X3318933Y3985552D01*
X3323605Y3980881D01*
X3330144Y3979012D01*
X3350698Y3979947D01*
X3359573Y3986019D01*
X3364712Y3988355D01*
X3373120Y3993026D01*
X3374989Y3994894D01*
X3379660Y3993960D01*
X3381061Y3992559D01*
X3380127Y3986953D01*
X3375456Y3982282D01*
X3374989Y3980881D01*
X3373120Y3979947D01*
X3364712Y3975275D01*
X3360975Y3971538D01*
X3354435Y3968736D01*
X3353968Y3968268D01*
X3346494Y3963597D01*
X3345093Y3962196D01*
X3338553Y3958459D01*
X3332947Y3952853D01*
X3326407Y3949116D01*
X3322671Y3945379D01*
X3316131Y3943511D01*
X3313328Y3944445D01*
X3311459Y3945379D01*
X3306321Y3949583D01*
X3301183Y3950985D01*
X3297446Y3951919D01*
X3292307Y3953320D01*
X3289037Y3955656D01*
X3286234Y3958459D01*
X3284366Y3959393D01*
X3277826Y3963130D01*
X3267082Y3973874D01*
X3263345Y3983216D01*
X3258674Y3993493D01*
X3257740Y4000033D01*
X3256806Y4009376D01*
X3255871Y4013112D01*
X3255404Y4029462D01*
X3256338Y4037870D01*
X3257273Y4050950D01*
X3260076Y4058424D01*
X3268017Y4072905D01*
X3271287Y4076174D01*
X3273155Y4077109D01*
X3274556Y4078510D01*
X3275491Y4080379D01*
X3279695Y4084583D01*
X3285767Y4086918D01*
X3289037Y4088320D01*
X3294176Y4092524D01*
X3295577Y4093925D01*
X3300716Y4095327D01*
X3304453Y4096261D01*
X3309124Y4098129D01*
X3312394Y4101399D01*
X3317065Y4103268D01*
X3324539Y4105136D01*
X3333882Y4110742D01*
X3340421Y4109808D01*
D02*
G37*
G36*
X3529607Y4009376D02*
X3528673Y4006573D01*
X3527272Y3999566D01*
X3524469Y3992092D01*
X3522133Y3988822D01*
X3517462Y3984151D01*
X3516528Y3982282D01*
X3504850Y3970604D01*
X3498310Y3966867D01*
X3494573Y3963130D01*
X3488033Y3960327D01*
X3481493Y3956590D01*
X3478691Y3953787D01*
X3476822Y3952853D01*
X3470282Y3948182D01*
X3465611Y3945379D01*
X3460006Y3946313D01*
X3453466Y3950985D01*
X3445058Y3955656D01*
X3439452Y3959393D01*
X3435715Y3960327D01*
X3422636Y3961261D01*
X3416096Y3957524D01*
X3410023Y3951452D01*
X3409089Y3949583D01*
X3406753Y3947248D01*
X3402082Y3945379D01*
X3397878Y3948649D01*
X3398812Y3957057D01*
X3403483Y3963597D01*
X3416096Y3976209D01*
X3417964Y3977144D01*
X3428241Y3982749D01*
X3430109Y3984618D01*
X3431978Y3985552D01*
X3436649Y3987421D01*
X3464677Y3986486D01*
X3466545Y3984618D01*
X3468414Y3983683D01*
X3471217Y3980881D01*
X3475888Y3979012D01*
X3482428Y3977144D01*
X3486165Y3978078D01*
X3489434Y3981348D01*
X3491303Y3986019D01*
X3492237Y3989756D01*
X3493172Y3996296D01*
X3491770Y4003303D01*
X3489902Y4007974D01*
X3488500Y4011244D01*
X3484296Y4015448D01*
X3482428Y4016382D01*
X3475888Y4022922D01*
X3466545Y4023856D01*
X3451597Y4022922D01*
X3446459Y4018718D01*
X3444123Y4016382D01*
X3442255Y4015448D01*
X3436182Y4011244D01*
X3435248Y4009376D01*
X3432912Y4007040D01*
X3425438Y4007974D01*
X3420300Y4012178D01*
X3418898Y4013579D01*
X3410957Y4017784D01*
X3410023Y4019652D01*
X3401615Y4031798D01*
X3400681Y4038337D01*
X3399746Y4042074D01*
X3400681Y4057022D01*
X3405352Y4065431D01*
X3409089Y4071036D01*
X3410023Y4072905D01*
X3422636Y4085517D01*
X3431044Y4090188D01*
X3433847Y4092991D01*
X3445992Y4099531D01*
X3448794Y4102334D01*
X3459071Y4107939D01*
X3465611Y4110742D01*
X3468414Y4109808D01*
X3472151Y4106071D01*
X3474019Y4105136D01*
X3480559Y4100465D01*
X3483362Y4097662D01*
X3488033Y4095794D01*
X3500178Y4094859D01*
X3503916Y4095794D01*
X3510455Y4100465D01*
X3514192Y4101399D01*
X3517462Y4099064D01*
X3518396Y4095327D01*
X3517462Y4092524D01*
X3513725Y4085984D01*
X3507653Y4079912D01*
X3505784Y4078977D01*
X3500178Y4075240D01*
X3498310Y4074306D01*
X3496442Y4072438D01*
X3488033Y4068701D01*
X3477756Y4067766D01*
X3474954Y4068701D01*
X3463743Y4069635D01*
X3454400Y4076174D01*
X3447860Y4078043D01*
X3440386Y4077109D01*
X3438985Y4075707D01*
X3438051Y4073839D01*
X3436182Y4069168D01*
X3437116Y4059825D01*
X3441788Y4053285D01*
X3445058Y4050016D01*
X3446926Y4049081D01*
X3451597Y4044410D01*
X3453466Y4043476D01*
X3458137Y4041607D01*
X3477756Y4042541D01*
X3487566Y4052351D01*
X3488500Y4054219D01*
X3490836Y4056555D01*
X3495507Y4058424D01*
X3501113Y4057489D01*
X3505784Y4052818D01*
X3514192Y4048147D01*
X3516528Y4045811D01*
X3517462Y4043943D01*
X3523068Y4038337D01*
X3524002Y4036469D01*
X3525871Y4031798D01*
X3526805Y4028061D01*
X3528673Y4021521D01*
X3529607Y4017784D01*
Y4010310D01*
Y4009376D01*
D02*
G37*
%LPC*%
G36*
X2985405Y4084583D02*
X2980734Y4083649D01*
X2978398Y4080379D01*
X2976530Y4078510D01*
X2975596Y4076642D01*
X2971858Y4072905D01*
X2969990Y4066365D01*
X2969056Y4062628D01*
X2966720Y4046278D01*
X2966253Y4045811D01*
X2966720Y4028528D01*
X2966253Y4019652D01*
X2967187Y4016849D01*
X2968122Y4005638D01*
X2969056Y4002836D01*
X2973727Y3994427D01*
X2977931Y3990223D01*
X2979800Y3989289D01*
X2982602Y3988355D01*
X2986339Y3987421D01*
X3004090Y3988355D01*
X3006893Y3989289D01*
X3011564Y3992092D01*
X3012966Y3997230D01*
X3012031Y4000033D01*
X3011097Y4068233D01*
X3006893Y4074306D01*
X3000353Y4077109D01*
X2994281Y4079444D01*
X2991011Y4081780D01*
X2989142Y4083649D01*
X2985405Y4084583D01*
D02*
G37*
G36*
X3309591Y4082714D02*
X3304920Y4081780D01*
X3303518Y4080379D01*
X3302584Y4076642D01*
X3301650Y4067299D01*
X3300716Y4063562D01*
X3299781Y4043943D01*
X3298847Y4041140D01*
X3299781Y4036469D01*
X3303051Y4033199D01*
X3311459Y4034133D01*
X3319868Y4039739D01*
X3326407Y4041607D01*
X3330144Y4042541D01*
X3334349Y4045811D01*
X3333414Y4052351D01*
X3330612Y4055154D01*
X3329677Y4057022D01*
X3325006Y4065431D01*
X3322203Y4068233D01*
X3321736Y4068701D01*
X3314729Y4080379D01*
X3309591Y4082714D01*
D02*
G37*
%LPD*%
D21*
X427100Y3822300D02*
G03*
X427100Y3822300I-12500J0D01*
G01*
X572600Y1180500D02*
G03*
X572600Y1180500I-12500J0D01*
G01*
X2196900Y339900D02*
G03*
X2196900Y339900I-12500J0D01*
G01*
X4127300Y251000D02*
G03*
X4127300Y251000I-12500J0D01*
G01*
D22*
X1866900Y340900D02*
G03*
X1739900Y340900I-63500J0D01*
G01*
X3797300Y285000D02*
G03*
X3670300Y285000I-63500J0D01*
G01*
X546600Y3200800D02*
Y3758800D01*
X282600Y3200800D02*
X546600D01*
X282600D02*
Y3758800D01*
X546600D01*
X425100Y1285500D02*
X465100D01*
X605100Y1435500D02*
Y1635500D01*
X565100D02*
X605100D01*
X285100D02*
X325100D01*
X285100Y1435500D02*
Y1635500D01*
X275100Y2715300D02*
X515100D01*
Y2085300D02*
Y2715300D01*
X275100Y2085300D02*
Y2715300D01*
Y2085300D02*
X515100D01*
X2068400Y340900D02*
Y1360900D01*
X1538400Y340900D02*
Y1360900D01*
X1866900Y340900D02*
X2068400D01*
X1538400D02*
X1739900D01*
X1538400Y1360900D02*
X2068400D01*
X1322800Y1763100D02*
X1350300D01*
X1545300D02*
X1572800D01*
Y2123100D01*
X1322800D02*
X1350300D01*
X1545300D02*
X1572800D01*
X1322800Y1763100D02*
Y2123100D01*
X3468800Y2255000D02*
X3998800D01*
X3468800Y285000D02*
X3670300D01*
X3797300D02*
X3998800D01*
X3468800D02*
Y2255000D01*
X3998800Y285000D02*
Y2255000D01*
X580100Y948100D02*
X682600D01*
X282600D02*
X385100D01*
X282600Y398100D02*
Y948100D01*
X580100Y398100D02*
X682600D01*
X282600D02*
X385100D01*
X682600D02*
Y948100D01*
X2656300Y297700D02*
X2906300D01*
Y997700D01*
X2656300D02*
X2906300D01*
X2656300Y297700D02*
Y997700D01*
D23*
X1998400Y440900D02*
G03*
X1998400Y440900I-30000J0D01*
G01*
X3928800Y385000D02*
G03*
X3928800Y385000I-30000J0D01*
G01*
D24*
X1051139Y3762727D02*
G03*
X1387312Y3762694I168061J-257511D01*
G01*
X1800439Y3762727D02*
G03*
X2136612Y3762694I168061J-257511D01*
G01*
X2549722Y3762727D02*
G03*
X2885896Y3762694I168061J-257511D01*
G01*
X3299022Y3762727D02*
G03*
X3635196Y3762694I168061J-257511D01*
G01*
X4124522Y3762727D02*
G03*
X4460696Y3762694I168061J-257511D01*
G01*
X5451827Y3623278D02*
G03*
X5451794Y3287104I-257511J-168061D01*
G01*
X5451827Y2847761D02*
G03*
X5451794Y2511588I-257511J-168061D01*
G01*
X5451827Y574478D02*
G03*
X5451794Y238304I-257511J-168061D01*
G01*
X5451827Y1361878D02*
G03*
X5451794Y1025704I-257511J-168061D01*
G01*
X5451827Y2085778D02*
G03*
X5451794Y1749604I-257511J-168061D01*
G01*
X1051139Y3762700D02*
X1387316D01*
X1800439D02*
X2136616D01*
X2549722D02*
X2885900D01*
X3299022D02*
X3635200D01*
X4124522D02*
X4460700D01*
X5451800Y3287100D02*
Y3623278D01*
Y2511584D02*
Y2847761D01*
Y238300D02*
Y574478D01*
Y1025700D02*
Y1361878D01*
Y1749600D02*
Y2085778D01*
D25*
X406400Y4025875D02*
X355617D01*
X381008D01*
Y3898917D01*
X355617Y3873525D01*
X330225D01*
X304833Y3898917D01*
X457184Y3873525D02*
X507967D01*
X482576D01*
Y4025875D01*
X457184Y4000483D01*
X3594141Y2514575D02*
Y2387617D01*
X3619533Y2362225D01*
X3670317D01*
X3695708Y2387617D01*
Y2514575D01*
X3848059Y2362225D02*
X3746492D01*
X3848059Y2463792D01*
Y2489183D01*
X3822667Y2514575D01*
X3771884D01*
X3746492Y2489183D01*
X1739933Y1625575D02*
Y1498617D01*
X1765325Y1473225D01*
X1816108D01*
X1841500Y1498617D01*
Y1625575D01*
X1892284Y1473225D02*
X1943067D01*
X1917676D01*
Y1625575D01*
X1892284Y1600183D01*
X2669540Y1292860D02*
Y1445211D01*
X2745715D01*
X2771107Y1419819D01*
Y1369035D01*
X2745715Y1343643D01*
X2669540D01*
X2720323D02*
X2771107Y1292860D01*
X2821891Y1419819D02*
X2847283Y1445211D01*
X2898066D01*
X2923458Y1419819D01*
Y1394427D01*
X2898066Y1369035D01*
X2872674D01*
X2898066D01*
X2923458Y1343643D01*
Y1318252D01*
X2898066Y1292860D01*
X2847283D01*
X2821891Y1318252D01*
X762041Y1409725D02*
Y1562075D01*
X838217D01*
X863608Y1536683D01*
Y1485900D01*
X838217Y1460508D01*
X762041D01*
X812825D02*
X863608Y1409725D01*
X1015959D02*
X914392D01*
X1015959Y1511292D01*
Y1536683D01*
X990567Y1562075D01*
X939784D01*
X914392Y1536683D01*
X596933Y2362225D02*
Y2514575D01*
X673108D01*
X698500Y2489183D01*
Y2438400D01*
X673108Y2413008D01*
X596933D01*
X647717D02*
X698500Y2362225D01*
X749284D02*
X800067D01*
X774676D01*
Y2514575D01*
X749284Y2489183D01*
X1016062Y3962375D02*
Y3810025D01*
X1092237D01*
X1117629Y3835417D01*
Y3936983D01*
X1092237Y3962375D01*
X1016062D01*
X1168412Y3810025D02*
X1219196D01*
X1193804D01*
Y3962375D01*
X1168412Y3936983D01*
X1295371D02*
X1320763Y3962375D01*
X1371547D01*
X1396939Y3936983D01*
Y3835417D01*
X1371547Y3810025D01*
X1320763D01*
X1295371Y3835417D01*
Y3936983D01*
X4178341Y3962375D02*
Y3810025D01*
X4254517D01*
X4279908Y3835417D01*
Y3936983D01*
X4254517Y3962375D01*
X4178341D01*
X4330692Y3835417D02*
X4356084Y3810025D01*
X4406867D01*
X4432259Y3835417D01*
Y3936983D01*
X4406867Y3962375D01*
X4356084D01*
X4330692Y3936983D01*
Y3911592D01*
X4356084Y3886200D01*
X4432259D01*
X4749841Y876275D02*
Y723925D01*
X4826017D01*
X4851408Y749317D01*
Y850883D01*
X4826017Y876275D01*
X4749841D01*
X4902192Y850883D02*
X4927584Y876275D01*
X4978367D01*
X5003759Y850883D01*
Y825492D01*
X4978367Y800100D01*
X5003759Y774708D01*
Y749317D01*
X4978367Y723925D01*
X4927584D01*
X4902192Y749317D01*
Y774708D01*
X4927584Y800100D01*
X4902192Y825492D01*
Y850883D01*
X4927584Y800100D02*
X4978367D01*
X3683041Y3949675D02*
Y3797325D01*
X3759217D01*
X3784608Y3822717D01*
Y3924283D01*
X3759217Y3949675D01*
X3683041D01*
X3835392D02*
X3936959D01*
Y3924283D01*
X3835392Y3822717D01*
Y3797325D01*
X4711741Y1612875D02*
Y1460525D01*
X4787917D01*
X4813308Y1485917D01*
Y1587483D01*
X4787917Y1612875D01*
X4711741D01*
X4965659D02*
X4914875Y1587483D01*
X4864092Y1536700D01*
Y1485917D01*
X4889484Y1460525D01*
X4940267D01*
X4965659Y1485917D01*
Y1511308D01*
X4940267Y1536700D01*
X4864092D01*
X2260641Y3936975D02*
Y3784625D01*
X2336817D01*
X2362208Y3810017D01*
Y3911583D01*
X2336817Y3936975D01*
X2260641D01*
X2514559D02*
X2412992D01*
Y3860800D01*
X2463775Y3886192D01*
X2489167D01*
X2514559Y3860800D01*
Y3810017D01*
X2489167Y3784625D01*
X2438384D01*
X2412992Y3810017D01*
X5067341Y3962375D02*
Y3810025D01*
X5143517D01*
X5168908Y3835417D01*
Y3936983D01*
X5143517Y3962375D01*
X5067341D01*
X5295867Y3810025D02*
Y3962375D01*
X5219692Y3886200D01*
X5321259D01*
X1841541Y3975075D02*
Y3822725D01*
X1917717D01*
X1943108Y3848117D01*
Y3949683D01*
X1917717Y3975075D01*
X1841541D01*
X1993892Y3949683D02*
X2019284Y3975075D01*
X2070067D01*
X2095459Y3949683D01*
Y3924292D01*
X2070067Y3898900D01*
X2044675D01*
X2070067D01*
X2095459Y3873508D01*
Y3848117D01*
X2070067Y3822725D01*
X2019284D01*
X1993892Y3848117D01*
X4597441Y2997175D02*
Y2844825D01*
X4673617D01*
X4699008Y2870217D01*
Y2971783D01*
X4673617Y2997175D01*
X4597441D01*
X4851359Y2844825D02*
X4749792D01*
X4851359Y2946392D01*
Y2971783D01*
X4825967Y2997175D01*
X4775184D01*
X4749792Y2971783D01*
X4711733Y2463775D02*
Y2311425D01*
X4787908D01*
X4813300Y2336817D01*
Y2438383D01*
X4787908Y2463775D01*
X4711733D01*
X4864084Y2311425D02*
X4914867D01*
X4889476D01*
Y2463775D01*
X4864084Y2438383D01*
X1752608Y2057383D02*
X1727217Y2082775D01*
X1676433D01*
X1651041Y2057383D01*
Y1955817D01*
X1676433Y1930425D01*
X1727217D01*
X1752608Y1955817D01*
X1904959Y1930425D02*
X1803392D01*
X1904959Y2031992D01*
Y2057383D01*
X1879567Y2082775D01*
X1828784D01*
X1803392Y2057383D01*
X495300Y241283D02*
X469908Y266675D01*
X419125D01*
X393733Y241283D01*
Y139717D01*
X419125Y114325D01*
X469908D01*
X495300Y139717D01*
X546084Y114325D02*
X596867D01*
X571476D01*
Y266675D01*
X546084Y241283D01*
D26*
X1176043Y3107678D02*
X1244600D01*
X1210322Y3073400D02*
Y3141957D01*
X1938043Y3094978D02*
X2006600D01*
X1972322Y3060700D02*
Y3129257D01*
X2674643Y3107678D02*
X2743200D01*
X2708922Y3073400D02*
Y3141957D01*
X3436643Y3094978D02*
X3505200D01*
X3470922Y3060700D02*
Y3129257D01*
X4211343Y3120378D02*
X4279900D01*
X4245622Y3086100D02*
Y3154657D01*
X4796778Y3484857D02*
Y3416300D01*
X4762500Y3450578D02*
X4831057D01*
X4809478Y2633957D02*
Y2565400D01*
X4775200Y2599678D02*
X4843757D01*
X4809478Y335257D02*
Y266700D01*
X4775200Y300978D02*
X4843757D01*
X4809478Y1148057D02*
Y1079500D01*
X4775200Y1113778D02*
X4843757D01*
X4809478Y1871957D02*
Y1803400D01*
X4775200Y1837678D02*
X4843757D01*
%TF.MD5,0e18c32f3164926cf54983c3b5b7b2c1*%
M02*
